<svg width="44" height="44" viewBox="0 0 44 44" fill="none" xmlns="http://www.w3.org/2000/svg">
<path d="M33.1337 20.2608C32.5742 19.7013 31.8302 19.3932 31.0371 19.3932L20.1152 19.3931L21.4495 18.0588C22.0099 17.4991 22.3186 16.7546 22.3186 15.9625C22.3186 14.329 20.9895 13 19.3552 13C18.5642 13 17.8205 13.3081 17.2608 13.8677L10.8719 20.2568C10.4575 20.6696 10.1769 21.1892 10.0603 21.7594C10.0203 21.9547 10 22.1553 10 22.3559C10 23.1495 10.3097 23.8949 10.8711 24.4541L17.2596 30.8425C17.8192 31.4031 18.5637 31.7118 19.356 31.7118C20.9895 31.7118 22.3185 30.3827 22.3186 28.7492C22.3187 27.958 22.0106 27.214 21.4509 26.6541L20.1153 25.3185H31.0387C31.8302 25.3185 32.5743 25.0103 33.1337 24.4507C34.2887 23.2955 34.2887 21.416 33.1337 20.2608Z" fill="#6DE244"/>
</svg>
