<svg width="24" height="24" viewBox="0 0 24 24" fill="none" xmlns="http://www.w3.org/2000/svg">
<path d="M21.1631 6.87743C22.279 5.76166 22.279 3.95262 21.1631 2.83684C20.0474 1.72105 18.2383 1.72105 17.1225 2.83684L12 7.95937L6.87743 2.83684C5.76166 1.72105 3.95262 1.72105 2.83684 2.83684C1.72105 3.95262 1.72105 5.76166 2.83684 6.87743L7.95937 12L2.83684 17.1225C1.72105 18.2383 1.72105 20.0474 2.83684 21.1631C3.95262 22.279 5.76166 22.279 6.87743 21.1631L12 16.0405L17.1225 21.1631C18.2383 22.279 20.0474 22.279 21.1631 21.1631C22.279 20.0474 22.279 18.2383 21.1631 17.1225L16.0405 12L21.1631 6.87743Z" fill="#6DE244"/>
</svg>
