<svg width="44" height="44" viewBox="0 0 44 44" fill="none" xmlns="http://www.w3.org/2000/svg">
<path d="M24.0083 14.3833L24.7417 13.65C25.6083 12.7833 27.1167 12.7833 27.9833 13.65L28.575 14.2417C29.0083 14.675 29.25 15.25 29.25 15.8583C29.25 16.4667 29.0083 17.05 28.575 17.475L27.8417 18.2083L24.0083 14.375V14.3833ZM23.125 15.2667L15.5333 22.8583C15.2917 23.1 15.1417 23.4167 15.1167 23.7583L14.8917 26.2C14.8667 26.5083 14.975 26.8083 15.1917 27.0333C15.3917 27.2333 15.65 27.3417 15.925 27.3417H16.0167L18.4583 27.1167C18.8 27.0833 19.1167 26.9333 19.3583 26.6917L26.95 19.1L23.1167 15.2667H23.125ZM30.9167 30C30.9167 29.6583 30.6333 29.375 30.2917 29.375H13.625C13.2833 29.375 13 29.6583 13 30C13 30.3417 13.2833 30.625 13.625 30.625H30.2917C30.6333 30.625 30.9167 30.3417 30.9167 30Z" fill="#201630"/>
</svg>
