<svg width="44" height="44" viewBox="0 0 44 44" fill="none" xmlns="http://www.w3.org/2000/svg">
<path d="M23.7095 8.00006C16.455 7.97891 10.5134 13.6155 10.0452 20.7465L12.3711 23.0216L14.356 20.7465C14.8189 15.9611 18.9011 12.2184 23.8238 12.2985C28.8057 12.3795 32.8798 16.4015 33.022 21.382C33.1728 26.6653 28.9188 31.0114 23.6689 31.0114C22.3225 31.0114 21.0418 30.7254 19.884 30.2111C18.8796 29.765 17.7005 30.1498 17.151 31.1016C16.5145 32.2042 16.967 33.6213 18.1304 34.1383C19.8231 34.8905 21.6971 35.3086 23.6689 35.3086C31.2003 35.3086 37.3075 29.211 37.3231 21.6832C37.3387 14.1218 31.2709 8.02215 23.7095 8.00006Z" fill="#6DE244"/>
<path d="M12.3482 22.7378L14.9779 20.1406C15.346 19.772 15.8356 19.569 16.3565 19.569C17.4307 19.569 18.3047 20.4431 18.3047 21.5178C18.3047 22.0379 18.1021 22.5271 17.734 22.8951L13.5325 27.0965C13.2611 27.3691 12.9194 27.5536 12.5444 27.6303C12.416 27.6566 12.284 27.6699 12.1521 27.6699C11.6303 27.6699 11.14 27.4663 10.7723 27.0971L6.57117 22.8959C6.20256 22.5279 5.99957 22.0383 5.99957 21.5173C5.99957 20.4431 6.87358 19.5691 7.94779 19.569C8.46809 19.569 8.95739 19.7716 9.32557 20.1397L12.3482 22.7378Z" fill="#6DE244"/>
<path d="M27.2186 21.0646H26.1858C25.9199 20.3148 25.3248 19.7201 24.575 19.4541V18.3812C24.575 17.8946 24.1804 17.5 23.6937 17.5C23.2071 17.5 22.8125 17.8946 22.8125 18.3812V19.4537C21.7868 19.8174 21.05 20.797 21.05 21.9458C21.05 23.4035 22.2359 24.5895 23.6937 24.5895C23.6991 24.5895 23.7044 24.5887 23.7098 24.5885V24.589C24.8516 24.5822 25.8237 23.8478 26.1858 22.827H27.2186C27.7053 22.827 28.0999 22.4325 28.0999 21.9458C28.0999 21.4591 27.7053 21.0646 27.2186 21.0646ZM23.7098 22.8262C23.7044 22.8263 23.6991 22.827 23.6937 22.827C23.2078 22.827 22.8125 22.4317 22.8125 21.9458C22.8125 21.4598 23.2078 21.0646 23.6937 21.0646C23.6991 21.0646 23.7044 21.0653 23.7098 21.0654C24.1883 21.0741 24.575 21.4653 24.575 21.9458C24.575 22.4263 24.1883 22.8175 23.7098 22.8262Z" fill="#6DE244"/>
</svg>
