<svg width="24" height="24" viewBox="0 0 24 24" fill="none" xmlns="http://www.w3.org/2000/svg">
<path d="M7 17.3334V6.66675C7 5.78718 7 5.3474 7.18509 5.08716C7.34664 4.86002 7.59564 4.71065 7.87207 4.675C8.1885 4.63418 8.57572 4.8407 9.35036 5.25384L9.35254 5.25501L19.3525 10.5883C20.212 11.0467 20.6418 11.276 20.7826 11.5812C20.9053 11.847 20.9053 12.1532 20.7826 12.4191C20.6418 12.7243 20.212 12.9535 19.3525 13.4119L9.35254 18.7452L9.34978 18.7467C8.57553 19.1596 8.18842 19.3661 7.87207 19.3253C7.59564 19.2896 7.34664 19.1402 7.18509 18.9131C7 18.6528 7 18.213 7 17.3334Z" fill="#6DE244" stroke="#6DE244" stroke-width="2" stroke-linecap="round" stroke-linejoin="round"/>
</svg>
