<svg width="24" height="24" viewBox="0 0 24 24" fill="none" xmlns="http://www.w3.org/2000/svg">
<g clip-path="url(#clip0_2912_30600)">
<path d="M19.6471 9.61905H14.381V4.35286C14.381 3.05905 13.2943 2 12 2C10.7057 2 9.61905 3.05905 9.61905 4.35286V9.61905H4.35286C3.05905 9.61905 2 10.7057 2 12C2 13.2943 3.05905 14.381 4.35286 14.381H9.61905V19.6471C9.61905 20.941 10.7057 22 12 22C13.2943 22 14.381 20.941 14.381 19.6471V14.381H19.6471C20.941 14.381 22 13.2943 22 12C22 10.7057 20.941 9.61905 19.6471 9.61905Z" fill="white"/>
</g>
<defs>
<clipPath id="clip0_2912_30600">
<rect width="24" height="24" fill="white"/>
</clipPath>
</defs>
</svg>
