<svg width="24" height="24" viewBox="0 0 24 24" fill="none" xmlns="http://www.w3.org/2000/svg">
<g clip-path="url(#clip0_2909_30273)">
<path d="M22.6192 14.4108L20.5426 12.8296C20.5689 12.5858 20.5915 12.3007 20.5915 11.9991C20.5915 11.6975 20.5698 11.4124 20.5426 11.1686L22.6211 9.58645C23.007 9.28944 23.1124 8.76235 22.8667 8.32329L20.7073 4.685C20.4767 4.27435 19.9712 4.0635 19.4582 4.24775L17.0078 5.20565C16.5381 4.87565 16.0458 4.597 15.5365 4.37425L15.1637 1.84335C15.1025 1.363 14.6733 1 14.1659 1H9.83578C9.32838 1 8.9001 1.363 8.83983 1.836L8.46613 4.3761C7.97285 4.59245 7.48809 4.86745 6.99764 5.2075L4.54074 4.24685C4.08038 4.0736 3.52969 4.2679 3.30095 4.67675L1.13872 8.3196C0.88363 8.73945 0.989045 9.28485 1.38348 9.5892L3.46006 11.1704C3.4271 11.4793 3.41113 11.7479 3.41113 12C3.41113 12.2521 3.42715 12.5207 3.46006 12.8305L1.38158 14.4127C0.99562 14.7106 0.891131 15.2377 1.13682 15.6758L3.29627 19.3141C3.52691 19.7238 4.02769 19.9365 4.54542 19.7513L6.99574 18.7934C7.46453 19.1225 7.95683 19.4012 8.46613 19.6248L8.8389 22.1548C8.90006 22.637 9.32838 23 9.83671 23H14.1669C14.6743 23 15.1035 22.637 15.1637 22.164L15.5374 19.6248C16.0307 19.4076 16.5145 19.1335 17.0059 18.7925L19.4628 19.7532C19.5814 19.7981 19.7048 19.821 19.8318 19.821C20.1971 19.821 20.5331 19.6267 20.7026 19.3242L22.8714 15.6667C23.1124 15.2377 23.007 14.7106 22.6192 14.4108ZM12.0008 15.6667C9.92425 15.6667 8.23549 14.0222 8.23549 12C8.23549 9.97785 9.92425 8.33335 12.0008 8.33335C14.0774 8.33335 15.7662 9.97785 15.7662 12C15.7662 14.0222 14.0774 15.6667 12.0008 15.6667Z" fill="#6DE244"/>
</g>
<defs>
<clipPath id="clip0_2909_30273">
<rect width="24" height="24" fill="white"/>
</clipPath>
</defs>
</svg>
